<svg xmlns="http://www.w3.org/2000/svg" width="74.973" height="56.269" viewBox="0 0 74.973 56.269">
  <g id="Group_1326" data-name="Group 1326" transform="translate(-7537.71 -4787.397)">
    <g id="Group_1324" data-name="Group 1324">
      <g id="Group_1323" data-name="Group 1323">
        <path id="Path_4462" data-name="Path 4462" d="M7537.71,4826.849h2.851v13.844h4.951v2.729h-7.8Z" fill="#fff"/>
        <path id="Path_4463" data-name="Path 4463" d="M7552.18,4831a4.858,4.858,0,0,1,3.9,1.876v-1.633h2.68v12.182h-2.68v-1.632a4.861,4.861,0,0,1-3.9,1.876,6.353,6.353,0,0,1,0-12.669Zm.487,2.436a3.908,3.908,0,1,0,3.63,3.9A3.647,3.647,0,0,0,7552.667,4833.433Z" fill="#fff"/>
        <path id="Path_4464" data-name="Path 4464" d="M7560.846,4841.3l6.383-7.626h-6.286v-2.437h9.746v2.144l-6.359,7.6h6.5v2.436h-9.987Z" fill="#fff"/>
        <path id="Path_4465" data-name="Path 4465" d="M7577.648,4831a4.858,4.858,0,0,1,3.9,1.876v-1.633h2.68v12.182h-2.68v-1.632a4.861,4.861,0,0,1-3.9,1.876,6.353,6.353,0,0,1,0-12.669Zm.488,2.436a3.908,3.908,0,1,0,3.63,3.9A3.646,3.646,0,0,0,7578.136,4833.433Z" fill="#fff"/>
        <path id="Path_4466" data-name="Path 4466" d="M7591.878,4831a4.857,4.857,0,0,1,3.9,1.876v-7h2.68v17.548h-2.68v-1.632a4.86,4.86,0,0,1-3.9,1.876,6.353,6.353,0,0,1,0-12.669Zm.487,2.436a3.908,3.908,0,1,0,3.63,3.9A3.647,3.647,0,0,0,7592.365,4833.433Z" fill="#fff"/>
        <path id="Path_4467" data-name="Path 4467" d="M7606.1,4831a4.858,4.858,0,0,1,3.9,1.876v-1.633h2.68v12.182H7610v-1.632a4.861,4.861,0,0,1-3.9,1.876,6.353,6.353,0,0,1,0-12.669Zm.487,2.436a3.908,3.908,0,1,0,3.63,3.9A3.647,3.647,0,0,0,7606.592,4833.433Z" fill="#fff"/>
      </g>
    </g>
    <g id="Group_1325" data-name="Group 1325">
      <path id="Path_4468" data-name="Path 4468" d="M7575.5,4822a1.7,1.7,0,0,1-.849-.229c-2.252-1.3-18.945-11.771-19.578-12.118a1.511,1.511,0,0,1-.907-1.2v-14.688a1.594,1.594,0,0,1,.742-1.338l.106-.065c1.634-1,7.034-4.3,7.893-4.781a1.317,1.317,0,0,1,.648-.178,1.275,1.275,0,0,1,.608.157c.014.01,7.572,4.928,8.725,5.372a6.052,6.052,0,0,0,2.612.545,5.83,5.83,0,0,0,2.9-.707c1.127-.6,8.36-5.16,8.432-5.207a1.267,1.267,0,0,1,.612-.16,1.32,1.32,0,0,1,.648.178c.977.549,7.684,4.654,7.969,4.828l.02.012a1.559,1.559,0,0,1,.751,1.344v14.687a1.51,1.51,0,0,1-.906,1.205c-.636.349-17.319,10.814-19.579,12.118A1.7,1.7,0,0,1,7575.5,4822Z" fill="#fff"/>
      <path id="Path_4469" data-name="Path 4469" d="M7575.415,4821.992c.028,0,.057.006.085.006a1.706,1.706,0,0,0,.85-.229c2.259-1.3,18.942-11.769,19.578-12.119a1.513,1.513,0,0,0,.907-1.2v-14.687a1.546,1.546,0,0,0-.167-.713l-21.253,11.673Z" fill="#fff" style="mix-blend-mode: multiply;isolation: isolate"/>
      <path id="Path_4470" data-name="Path 4470" d="M7554.166,4808.447a1.509,1.509,0,0,0,.907,1.2c.633.348,17.326,10.82,19.578,12.119a1.718,1.718,0,0,0,.764.223v-17.273l-21.151-11.505a1.534,1.534,0,0,0-.1.545Z" fill="#fff" opacity="0.41" style="mix-blend-mode: multiply;isolation: isolate"/>
    </g>
  </g>
</svg>
