<svg xmlns="http://www.w3.org/2000/svg" version="1.1" xmlns:xlink="http://www.w3.org/1999/xlink" xmlns:svgjs="http://svgjs.com/svgjs" width="512" height="512" x="0" y="0" viewBox="0 0 100 100" style="enable-background:new 0 0 512 512" xml:space="preserve"><g><path d="M89 33h-6.1c-5-13.8-18.1-23-32.9-23s-27.9 9.2-32.9 23H11c-3.3 0-6 2.7-6 6v12c0 3.3 2.7 6 6 6h7.5c.6 0 1.2-.3 1.6-.8s.5-1.2.3-1.8c-1-3-1.5-6.2-1.5-9.4s.5-6.4 1.5-9.4C24.6 22.7 36.4 14 50 14s25.4 8.7 29.5 21.6c1 3 1.5 6.2 1.5 9.4s-.5 6.4-1.5 9.4C75.4 67.3 63.6 76 50 76H35c-3.9 0-7 3.1-7 7s3.1 7 7 7h10c3.9 0 7-3.1 7-7v-3.1c14-.8 26.1-9.7 30.9-22.9H89c3.3 0 6-2.7 6-6V39c0-3.3-2.7-6-6-6zM15.9 53H11c-1.1 0-2-.9-2-2V39c0-1.1.9-2 2-2h4.9c-.6 2.6-.9 5.3-.9 8s.3 5.4.9 8zM48 83c0 1.7-1.3 3-3 3H35c-1.7 0-3-1.3-3-3s1.3-3 3-3h13zm43-32c0 1.1-.9 2-2 2h-4.9c.6-2.6.9-5.3.9-8s-.3-5.4-.9-8H89c1.1 0 2 .9 2 2zm-16-6c0-13.8-11.2-25-25-25S25 31.2 25 45c0 6 2.1 11.7 6 16.2l-5.4 5.4c-.6.6-.7 1.4-.4 2.2.3.7 1 1.2 1.8 1.2h23c13.8 0 25-11.2 25-25zM35.2 59.8c-4-4-6.2-9.2-6.2-14.8 0-11.6 9.4-21 21-21s21 9.4 21 21-9.4 21-21 21H31.8l3.3-3.3c.8-.8.8-2.1.1-2.9zM48 45c0-1.1.9-2 2-2s2 .9 2 2-.9 2-2 2-2-.9-2-2zm10 0c0-1.1.9-2 2-2s2 .9 2 2-.9 2-2 2-2-.9-2-2zm-20 0c0-1.1.9-2 2-2s2 .9 2 2-.9 2-2 2-2-.9-2-2z" fill="#cd3832" data-original="#000000" opacity="1"></path></g></svg>